<mxfile host="app.diagrams.net" agent="Mozilla/5.0 (Macintosh; Intel Mac OS X 10_15_7) AppleWebKit/537.36 (KHTML, like Gecko) Chrome/130.0.0.0 Safari/537.36" version="24.8.2">
  <diagram name="Page-1" id="T4AhWtF0UpHQR5BLpfcj">
    <mxGraphModel dx="1312" dy="792" grid="1" gridSize="10" guides="1" tooltips="1" connect="1" arrows="1" fold="1" page="1" pageScale="1" pageWidth="1169" pageHeight="827" math="0" shadow="0">
      <root>
        <mxCell id="0" />
        <mxCell id="1" parent="0" />
        <mxCell id="qjvCAup0NOJjpmu3meiY-17" value="" style="rounded=0;whiteSpace=wrap;html=1;" vertex="1" parent="1">
          <mxGeometry x="610" y="70" width="100" height="40" as="geometry" />
        </mxCell>
        <mxCell id="qjvCAup0NOJjpmu3meiY-1" value="&lt;u&gt;:Administrator&lt;/u&gt;" style="shape=umlLifeline;perimeter=lifelinePerimeter;whiteSpace=wrap;html=1;container=1;dropTarget=0;collapsible=0;recursiveResize=0;outlineConnect=0;portConstraint=eastwest;newEdgeStyle={&quot;curved&quot;:0,&quot;rounded&quot;:0};" vertex="1" parent="1">
          <mxGeometry x="130" y="80" width="100" height="490" as="geometry" />
        </mxCell>
        <mxCell id="qjvCAup0NOJjpmu3meiY-10" value="" style="html=1;points=[[0,0,0,0,5],[0,1,0,0,-5],[1,0,0,0,5],[1,1,0,0,-5]];perimeter=orthogonalPerimeter;outlineConnect=0;targetShapes=umlLifeline;portConstraint=eastwest;newEdgeStyle={&quot;curved&quot;:0,&quot;rounded&quot;:0};" vertex="1" parent="qjvCAup0NOJjpmu3meiY-1">
          <mxGeometry x="45" y="80" width="10" height="410" as="geometry" />
        </mxCell>
        <mxCell id="qjvCAup0NOJjpmu3meiY-2" value="&lt;u&gt;:Offers&lt;/u&gt;" style="shape=umlLifeline;perimeter=lifelinePerimeter;whiteSpace=wrap;html=1;container=1;dropTarget=0;collapsible=0;recursiveResize=0;outlineConnect=0;portConstraint=eastwest;newEdgeStyle={&quot;curved&quot;:0,&quot;rounded&quot;:0};" vertex="1" parent="1">
          <mxGeometry x="340" y="80" width="100" height="490" as="geometry" />
        </mxCell>
        <mxCell id="qjvCAup0NOJjpmu3meiY-11" value="" style="html=1;points=[[0,0,0,0,5],[0,1,0,0,-5],[1,0,0,0,5],[1,1,0,0,-5]];perimeter=orthogonalPerimeter;outlineConnect=0;targetShapes=umlLifeline;portConstraint=eastwest;newEdgeStyle={&quot;curved&quot;:0,&quot;rounded&quot;:0};" vertex="1" parent="qjvCAup0NOJjpmu3meiY-2">
          <mxGeometry x="45" y="80" width="10" height="410" as="geometry" />
        </mxCell>
        <mxCell id="qjvCAup0NOJjpmu3meiY-3" value="createOffer&lt;div&gt;(mode, activity, start, end, day, loc)&lt;/div&gt;" style="html=1;verticalAlign=bottom;endArrow=block;curved=0;rounded=0;" edge="1" parent="1">
          <mxGeometry x="0.0021" width="80" relative="1" as="geometry">
            <mxPoint x="179.5" y="160" as="sourcePoint" />
            <mxPoint x="389.5" y="160" as="targetPoint" />
            <mxPoint as="offset" />
          </mxGeometry>
        </mxCell>
        <mxCell id="qjvCAup0NOJjpmu3meiY-7" value="&lt;u&gt;o:Offer&lt;/u&gt;" style="shape=umlLifeline;perimeter=lifelinePerimeter;whiteSpace=wrap;html=1;container=1;dropTarget=0;collapsible=0;recursiveResize=0;outlineConnect=0;portConstraint=eastwest;newEdgeStyle={&quot;curved&quot;:0,&quot;rounded&quot;:0};" vertex="1" parent="1">
          <mxGeometry x="470" y="220" width="100" height="350" as="geometry" />
        </mxCell>
        <mxCell id="qjvCAup0NOJjpmu3meiY-14" value="" style="html=1;points=[[0,0,0,0,5],[0,1,0,0,-5],[1,0,0,0,5],[1,1,0,0,-5]];perimeter=orthogonalPerimeter;outlineConnect=0;targetShapes=umlLifeline;portConstraint=eastwest;newEdgeStyle={&quot;curved&quot;:0,&quot;rounded&quot;:0};" vertex="1" parent="qjvCAup0NOJjpmu3meiY-7">
          <mxGeometry x="45" y="40" width="10" height="90" as="geometry" />
        </mxCell>
        <mxCell id="qjvCAup0NOJjpmu3meiY-8" value="create" style="html=1;verticalAlign=bottom;endArrow=block;curved=0;rounded=0;" edge="1" parent="1">
          <mxGeometry width="80" relative="1" as="geometry">
            <mxPoint x="395" y="240" as="sourcePoint" />
            <mxPoint x="470" y="240" as="targetPoint" />
            <mxPoint as="offset" />
          </mxGeometry>
        </mxCell>
        <mxCell id="qjvCAup0NOJjpmu3meiY-9" value="o" style="html=1;verticalAlign=bottom;endArrow=open;dashed=1;endSize=8;curved=0;rounded=0;" edge="1" parent="1">
          <mxGeometry relative="1" as="geometry">
            <mxPoint x="515" y="350" as="sourcePoint" />
            <mxPoint x="395" y="350" as="targetPoint" />
            <Array as="points">
              <mxPoint x="440" y="350" />
            </Array>
          </mxGeometry>
        </mxCell>
        <mxCell id="qjvCAup0NOJjpmu3meiY-15" value="&lt;u&gt;:Offer&lt;/u&gt;" style="shape=umlLifeline;perimeter=lifelinePerimeter;whiteSpace=wrap;html=1;container=1;dropTarget=0;collapsible=0;recursiveResize=0;outlineConnect=0;portConstraint=eastwest;newEdgeStyle={&quot;curved&quot;:0,&quot;rounded&quot;:0};" vertex="1" parent="1">
          <mxGeometry x="620" y="80" width="100" height="490" as="geometry" />
        </mxCell>
        <mxCell id="qjvCAup0NOJjpmu3meiY-18" value="add(o)" style="html=1;verticalAlign=bottom;endArrow=block;curved=0;rounded=0;exitX=1;exitY=1;exitDx=0;exitDy=-5;exitPerimeter=0;" edge="1" parent="1">
          <mxGeometry x="-0.3078" width="80" relative="1" as="geometry">
            <mxPoint x="525" y="280" as="sourcePoint" />
            <mxPoint x="669.5" y="280" as="targetPoint" />
            <mxPoint as="offset" />
          </mxGeometry>
        </mxCell>
        <mxCell id="qjvCAup0NOJjpmu3meiY-20" value="o" style="html=1;verticalAlign=bottom;endArrow=open;dashed=1;endSize=8;curved=0;rounded=0;" edge="1" parent="1" source="qjvCAup0NOJjpmu3meiY-11" target="qjvCAup0NOJjpmu3meiY-10">
          <mxGeometry relative="1" as="geometry">
            <mxPoint x="380" y="400" as="sourcePoint" />
            <mxPoint x="190" y="400" as="targetPoint" />
            <Array as="points">
              <mxPoint x="315" y="400" />
            </Array>
          </mxGeometry>
        </mxCell>
        <mxCell id="qjvCAup0NOJjpmu3meiY-28" value="&lt;u&gt;loc:Location&lt;/u&gt;" style="shape=umlLifeline;perimeter=lifelinePerimeter;whiteSpace=wrap;html=1;container=1;dropTarget=0;collapsible=0;recursiveResize=0;outlineConnect=0;portConstraint=eastwest;newEdgeStyle={&quot;curved&quot;:0,&quot;rounded&quot;:0};" vertex="1" parent="1">
          <mxGeometry x="770" y="80" width="100" height="490" as="geometry" />
        </mxCell>
        <mxCell id="qjvCAup0NOJjpmu3meiY-31" value="" style="html=1;points=[[0,0,0,0,5],[0,1,0,0,-5],[1,0,0,0,5],[1,1,0,0,-5]];perimeter=orthogonalPerimeter;outlineConnect=0;targetShapes=umlLifeline;portConstraint=eastwest;newEdgeStyle={&quot;curved&quot;:0,&quot;rounded&quot;:0};" vertex="1" parent="qjvCAup0NOJjpmu3meiY-28">
          <mxGeometry x="45" y="100" width="10" height="330" as="geometry" />
        </mxCell>
        <mxCell id="qjvCAup0NOJjpmu3meiY-29" value="modifySchedule(start, end, day)" style="html=1;verticalAlign=bottom;endArrow=block;curved=0;rounded=0;" edge="1" parent="1">
          <mxGeometry x="-0.4095" width="80" relative="1" as="geometry">
            <mxPoint x="522.75" y="324.57" as="sourcePoint" />
            <mxPoint x="817.25" y="324.57" as="targetPoint" />
            <mxPoint as="offset" />
          </mxGeometry>
        </mxCell>
        <mxCell id="qjvCAup0NOJjpmu3meiY-30" value="&lt;span style=&quot;text-align: left;&quot;&gt;valid := validateTime(start, end, day)&lt;/span&gt;" style="html=1;verticalAlign=bottom;endArrow=block;curved=0;rounded=0;" edge="1" parent="1" source="qjvCAup0NOJjpmu3meiY-11">
          <mxGeometry x="-0.1895" width="80" relative="1" as="geometry">
            <mxPoint x="400" y="180" as="sourcePoint" />
            <mxPoint x="819.5" y="180" as="targetPoint" />
            <mxPoint as="offset" />
          </mxGeometry>
        </mxCell>
        <mxCell id="qjvCAup0NOJjpmu3meiY-32" value="alt" style="shape=umlFrame;whiteSpace=wrap;html=1;pointerEvents=0;" vertex="1" parent="1">
          <mxGeometry x="40" y="200" width="840" height="320" as="geometry" />
        </mxCell>
        <mxCell id="qjvCAup0NOJjpmu3meiY-33" value="[valid]" style="text;html=1;align=center;verticalAlign=middle;resizable=0;points=[];autosize=1;strokeColor=none;fillColor=none;" vertex="1" parent="1">
          <mxGeometry x="105" y="198" width="50" height="30" as="geometry" />
        </mxCell>
        <mxCell id="qjvCAup0NOJjpmu3meiY-34" value="" style="html=1;verticalAlign=bottom;endArrow=none;dashed=1;endSize=8;curved=0;rounded=0;entryX=-0.002;entryY=0.747;entryDx=0;entryDy=0;entryPerimeter=0;exitX=0.997;exitY=0.75;exitDx=0;exitDy=0;exitPerimeter=0;elbow=vertical;endFill=0;" edge="1" parent="1" source="qjvCAup0NOJjpmu3meiY-32" target="qjvCAup0NOJjpmu3meiY-32">
          <mxGeometry relative="1" as="geometry">
            <mxPoint x="450" y="440" as="sourcePoint" />
            <mxPoint x="370" y="440" as="targetPoint" />
          </mxGeometry>
        </mxCell>
        <mxCell id="qjvCAup0NOJjpmu3meiY-35" value="[!valid]" style="text;html=1;align=center;verticalAlign=middle;resizable=0;points=[];autosize=1;strokeColor=none;fillColor=none;" vertex="1" parent="1">
          <mxGeometry x="50" y="438" width="60" height="30" as="geometry" />
        </mxCell>
        <mxCell id="qjvCAup0NOJjpmu3meiY-36" value="error" style="html=1;verticalAlign=bottom;endArrow=open;dashed=1;endSize=8;curved=0;rounded=0;" edge="1" parent="1" source="qjvCAup0NOJjpmu3meiY-31">
          <mxGeometry relative="1" as="geometry">
            <mxPoint x="510" y="468" as="sourcePoint" />
            <mxPoint x="390" y="468" as="targetPoint" />
            <Array as="points">
              <mxPoint x="435" y="468" />
            </Array>
          </mxGeometry>
        </mxCell>
        <mxCell id="qjvCAup0NOJjpmu3meiY-37" value="error" style="html=1;verticalAlign=bottom;endArrow=open;dashed=1;endSize=8;curved=0;rounded=0;" edge="1" parent="1">
          <mxGeometry relative="1" as="geometry">
            <mxPoint x="380" y="500" as="sourcePoint" />
            <mxPoint x="180" y="500" as="targetPoint" />
            <Array as="points">
              <mxPoint x="310" y="500" />
            </Array>
          </mxGeometry>
        </mxCell>
      </root>
    </mxGraphModel>
  </diagram>
</mxfile>
